<svg version="1.1" viewBox="0 0 163.01 40.477" xmlns="http://www.w3.org/2000/svg">
 <g transform="translate(-27.47 -99.399)" style="stroke-width:.26458" aria-label="CYLINDRICITY">
  <path d="m42.253 122.36c0.34805-2.7674 1.0198-8.2578 1.0198-8.2578-0.15075 0.0481-0.47346 0.10354-0.47346 0.10354-0.25087 0.79854-0.67778 1.3113-1.1306 1.4024-0.20365 0.041-0.52568-5.8e-4 -0.83655-0.11516-1.0096-0.39741-2.0926-0.46887-3.1508-0.28715-1.8356 0.31524-3.9175 1.6772-5.6615 3.7125-1.9779 2.3055-3.4564 5.5133-4.1739 9.3201-1.3192 6.9995 0.89555 11.788 5.6878 11.634 2.7037-0.087 5.3271-1.8523 7.1882-4.9937-0.1014-0.19679-0.32641-0.63323-0.32641-0.63323-2.1008 2.7732-3.8782 3.9367-5.8422 4.022-1.4948 0.0649-2.7067-0.60605-3.4877-1.906-0.99793-1.679-1.1546-4.7976-0.44783-8.7124 1.1342-6.2825 4.0108-10.552 7.2571-11.095 1.2893-0.21576 2.3436 0.31276 3.0344 1.5676 0.5495 1.0354 0.73538 1.997 0.8155 4.3243 0.17603-0.0283 0.35205-0.057 0.52807-0.0858"/>
  <path d="m60.238 110.24c-1.6419 0.4731-4.9432 1.3629-4.9432 1.3629-0.02068 0.26751-0.08485 0.76015-0.08485 0.76015 1.1704-0.27277 1.521-0.0559 1.4166 0.91906-0.04333 0.4048-0.18612 0.91594-0.47885 1.5791-1.4052 3.3327-4.2974 9.7587-4.2974 9.7587-0.81021-2.7941-2.3382-8.0214-2.3382-8.0214-0.17178-0.56094-0.22388-1.1825-0.16965-1.6054 0.09359-0.72987 0.45017-1.1148 1.183-1.3745 0.09032-0.0228 0.31664-0.0799 0.57-0.18194 0.0379-0.23232 0.0912-0.73786 0.0912-0.73786-2.0996 0.56225-6.32 1.5529-6.32 1.5529-0.02641 0.24855-0.10096 0.70569-0.10096 0.70569 1.0745-0.16782 1.2926 0.19648 2.8745 5.1456 0.67274 2.2243 2.0817 6.9175 2.0817 6.9175-0.26963 2.294-0.83156 6.8332-0.83156 6.8332-0.4439 3.4556-0.69989 3.8305-2.8816 4.1416-0.02356 0.25987-0.09432 0.7327-0.09432 0.7327 2.4343-0.14813 7.2788-0.52994 7.2788-0.52994 0.03602-0.24039 0.08364-0.76993 0.08364-0.76993-2.1067 0.0933-2.3626-0.32627-2.0332-3.391 0.30511-2.5668 0.8908-7.7454 0.8908-7.7454 1.5001-3.1768 4.4143-9.7863 4.4143-9.7863 1.7811-3.929 2.4287-4.9928 3.612-5.4778-3.08e-4 3e-3 0.07748-0.79045 0.07719-0.78756z"/>
  <path d="m67.303 108.29c-2.1134 0.59137-6.3652 1.7551-6.3652 1.7551-0.01759 0.27858-0.07614 0.79145-0.07614 0.79145 1.6297-0.24037 1.852 0.23392 1.6204 3.2735-0.56192 6.2897-1.7092 18.884-1.7092 18.884-0.32454 3.0716-0.68586 3.6918-2.4129 4.0058-0.01711 0.28251-0.07618 0.79675-0.07618 0.79675 4.275-0.32477 12.797-1.0146 12.797-1.0146 0.56175-2.6277 1.6522-8.0351 1.6522-8.0351-0.18696 0.0414-0.58669 0.0703-0.58669 0.0703-1.4144 4.9124-2.5264 6.154-5.5959 6.6049-0.52121 0.0652-1.5889 0.14338-1.5889 0.14338-1.8193 0.0781-1.9975-0.0328-1.8894-1.5859 0.58848-6.8275 1.7323-20.433 1.7323-20.433 0.31214-3.1459 0.65597-3.7883 2.4319-4.4302-2.43e-4 3e-3 0.06655-0.82939 0.06631-0.82636z"/>
  <path d="m72.96 136.64c2.3642-0.15612 7.0647-0.49351 7.0647-0.49351 0.02378-0.2811 0.04429-0.90113 0.04429-0.90113-1.9441 0.0398-2.2403-0.59055-2.1017-4.0612 0.38207-6.9624 1.115-20.845 1.115-20.845 0.2331-3.5073 0.55953-4.1489 2.4414-4.6853 0.02329-0.28108 0.04427-0.89583 0.04427-0.89583-2.2265 0.49874-6.7038 1.5579-6.7038 1.5579-0.0099 0.30511-0.05463 0.86529-0.05463 0.86529 1.9072-0.23852 2.1296 0.17064 1.9501 3.6336-0.39102 6.8635-1.1981 20.599-1.1981 20.599-0.22889 3.5341-0.54201 4.0601-2.5468 4.3551-0.01822 0.29024-0.03644 0.58044-0.05465 0.87058z"/>
  <path d="m97.933 102.11c-1.7594 0.19996-5.3043 0.6493-5.3043 0.6493-1.86e-4 0.33081-0.02719 0.9348-0.02719 0.9348 1.8006-6e-3 2.074 0.81457 2.0096 6.064-0.1319 5.6008-0.42305 16.785-0.42305 16.785-0.78121-2.1879-4.3473-12.228-5.1285-14.416-1.6681-4.6923-2.954-8.2868-2.954-8.2868-1.2782 0.26011-3.8597 0.77126-3.8597 0.77126-0.0059 0.31731-0.04323 0.89866-0.04323 0.89866 0.97085-0.20088 1.2707 0.11384 2.0775 2.19-0.29962 7.0525-0.92526 21.188-0.92526 21.188-0.26964 5.1075-0.61227 5.936-2.5725 6.3064-0.0054 0.32079-0.04325 0.90396-0.04325 0.90396 1.8733-0.0998 5.5899-0.33089 5.5899-0.33089 0.0209-0.28817 0.03505-0.92418 0.03505-0.92418-1.8229-0.0892-2.1352-1.0769-1.9745-6.0466 0.27359-6.3146 0.79081-18.919 0.79081-18.919 1.2064 3.3332 4.5759 12.706 5.7823 16.04 1.9854 5.5034 3.6309 10.019 3.6309 10.019 0.14442 0.0157 0.40471-0.0143 0.40471-0.0143 0.21617-8.7558 0.61782-26.266 0.61782-26.266 0.19017-5.1743 0.50611-6.0706 2.2979-6.5974 0.0063-0.31591 0.01266-0.63172 0.01899-0.94743z"/>
  <path d="m98.008 135.27c2.2619-0.0455 6.7555-0.14502 6.7555-0.14502 2.7593-0.0368 5.2638-1.7154 6.723-4.556 1.5328-2.9987 2.3674-7.4956 2.3396-12.428-0.0257-4.5646-0.71851-8.5486-1.9986-11.345-1.5572-3.5134-4.0124-5.3363-7.101-5.1937-2.0225 0.11455-6.0943 0.435-6.0943 0.435 0.0031 0.33621-0.01791 0.94879-0.01791 0.94879 1.7793 0.18145 1.9549 0.57812 1.919 4.346-0.10644 7.4617-0.347 22.386-0.347 22.386-0.0807 3.6862-0.37378 4.2917-2.1605 4.5986-6e-3 0.31807-0.01195 0.6361-0.01792 0.95408zm4.8677-29.746c0.0184-1.559 0.24998-1.9805 1.2004-2.0274 1.9679-0.0971 3.413 0.68226 4.4985 2.388 1.7622 2.7058 2.717 7.0995 2.7262 12.581 0.0101 6.007-0.93749 10.261-2.8633 12.666-1.2114 1.4823-2.5894 2.0992-4.6546 2.1358-0.94922 0.0168-1.228-0.43094-1.209-2.0505 1.1592-98.715-0.85733 73.023 0.30186-25.692z"/>
  <path d="m130.45 134.65c-0.90621-0.1926-1.3988-0.7076-2.1324-2.4274-1.7333-4.2437-5.1347-12.916-5.1347-12.916 2.9247-1.0609 4.0976-3.4027 3.9725-7.9656-0.0584-2.1287-0.40607-3.996-1.0331-5.5024-0.91421-2.1321-2.8437-3.6606-4.9389-3.8523-2.0671-0.16817-6.2296-0.41109-6.2296-0.41109 0.0121 0.34071 7e-3 0.95784 7e-3 0.95784 1.6759 0.46915 1.9079 0.94175 1.9702 4.6267 0.0879 7.3067 0.23417 21.919 0.23417 21.919 0.0224 4.307-0.18483 4.8015-1.9643 5.0825 0.0126 0.34261 7e-3 0.96314 7e-3 0.96314 2.2069 0.0484 6.589 0.13341 6.589 0.13341 5e-3 -0.29694-0.017-0.95511-0.017-0.95511-1.834-0.30598-2.1264-0.91117-2.2032-4.601-0.0376-3.2963-0.14345-9.9517-0.14345-9.9517 0.44325 8e-3 1.2989-0.0362 1.2989-0.0362 1.938 5.295 5.9173 15.707 5.9173 15.707 1.2872 0.0711 3.8297 0.16523 3.8297 0.16523-0.01-0.31172-0.0198-0.62349-0.0297-0.9353zm-11.222-29.167c-0.0204-1.4056 0.22319-1.7934 1.1284-1.72 2.822 0.22891 4.1933 2.5601 4.3015 7.2216 0.0579 2.4931-0.37646 4.5476-1.1878 5.4377-1.0422 1.2322-1.8349 1.4667-4.063 1.4579-0.0597-4.1404-0.11943-8.2759-0.17912-12.397z"/>
  <path d="m131.57 135.64c2.3661 0.13736 7.0647 0.39577 7.0647 0.39577-3e-3 -0.2819-0.0417-0.90791-0.0417-0.90791-1.9532-0.22454-2.3125-0.91216-2.509-4.4937-0.28848-7.1536-0.89434-21.428-0.89434-21.428-0.10531-3.5932 0.16503-4.1274 2.0341-3.8922-3e-3 -0.27923-0.0417-0.90262-0.0417-0.90262-2.2245-0.43786-6.7035-1.237-6.7035-1.237 0.0206 0.3308 0.0313 0.92676 0.0313 0.92676 1.9287 0.5486 2.1979 1.0953 2.3571 4.7273 0.2807 7.2079 0.81111 21.622 0.81111 21.622 0.11527 3.702-0.1493 4.2149-2.1395 4.2575 0.0104 0.31073 0.0209 0.62142 0.0313 0.93206z"/>
  <path d="m152.29 117.17c-0.31106-3.3147-0.96015-9.9644-0.96015-9.9644-0.14699-0.0219-0.47344-0.12832-0.47344-0.12832-0.0657 0.88784-0.38787 1.3256-0.84021 1.2089-0.20344-0.0525-0.55226-0.2728-0.90691-0.5832-1.1612-1.044-2.3104-1.6996-3.3706-1.9676-1.8509-0.46796-3.6294 0.49594-4.9048 2.7871-1.4324 2.5683-2.1012 6.8124-1.8504 12.052 0.47105 9.8427 3.894 16.375 8.6807 16.714 2.6908 0.19061 4.9302-1.7061 6.0703-5.1283-0.15053-0.26105-0.48487-0.84396-0.48487-0.84396-1.4824 2.9514-2.9823 4.1838-4.9531 4.0208-1.4973-0.12381-2.8802-1.1437-3.9982-3.0085-1.4337-2.408-2.3772-6.7044-2.6573-11.99-0.45542-8.5933 1.3934-13.471 4.6432-12.68 1.2869 0.31322 2.5298 1.5613 3.5622 3.5129 0.83333 1.6062 1.2611 2.9104 1.9156 5.8903 3e-3 5.4e-4 0.52537 0.10776 0.52804 0.10831z"/>
  <path d="m155.36 137.25c2.367 0.20715 7.0647 0.56725 7.0647 0.56725-0.0139-0.2466-0.0766-0.79511-0.0766-0.79511-1.957-0.25008-2.3419-0.87025-2.6744-4.027-0.5609-6.305-1.7102-18.878-1.7102-18.878-0.24333-3.1666 5e-3 -3.5899 1.8688-3.2046-0.0144-0.24344-0.0766-0.78982-0.0766-0.78982-2.2264-0.60177-6.7035-1.8489-6.7035-1.8489 0.033 0.29622 0.0662 0.82661 0.0662 0.82661 1.9378 0.72733 2.2255 1.2276 2.5224 4.4532 0.5534 6.3898 1.6269 19.174 1.6269 19.174 0.25468 3.2788 0.0116 3.729-1.9742 3.6908 0.0221 0.27735 0.0442 0.55465 0.0662 0.8319z"/>
  <path d="m173.82 137.95c-1.9681-0.2981-2.3325-0.79763-2.7071-3.7137-0.801-6.7312-2.4235-20.09-2.4235-20.09 0.41945 0.12084 1.223 0.30334 1.223 0.30334 2.6391 0.72393 3.1934 1.4644 4.258 5.7037 0.1949 0.0533 0.54917 0.10582 0.54917 0.10582-0.32812-2.1376-1.0154-6.439-1.0154-6.439-4.2244-0.99576-12.73-3.3584-12.73-3.3584 0.19947 2.3353 0.56474 6.9938 0.56474 6.9938 0.19442 0.0607 0.54917 0.12333 0.54917 0.12333 0.0725-4.3816 0.47193-4.9294 3.0682-4.334 0.41926 0.12509 1.223 0.31561 1.223 0.31561 0.77018 6.6422 2.2776 19.985 2.2776 19.985 0.36781 3.4366 0.20161 3.821-1.7726 3.8591 0.0396 0.27503 0.0833 0.77117 0.0833 0.77117 2.3285 0.19684 6.9458 0.50952 6.9458 0.50952-7e-4 -6e-3 -0.0928-0.73002-0.0935-0.73553"/>
  <path d="m190.36 116.66c-1.6358-0.11394-4.9431-0.54722-4.9431-0.54722 0.0508 0.23753 0.11623 0.66495 0.11623 0.66495 1.1816 0.19647 1.616 0.51286 1.7659 1.3482 0.0624 0.34793 0.0468 0.75575-0.0872 1.2539-0.59483 2.4908-1.9044 7.6291-1.9044 7.6291-1.5711-2.7386-4.6886-8.4358-4.6886-8.4358-0.34113-0.62191-0.57319-1.2632-0.63538-1.6614-0.10768-0.68956 0.16456-0.91464 0.876-0.85377 0.0909 0.0167 0.31598 0.0579 0.5594 0.0665-0.0247-0.21017-0.10988-0.68005-0.10988-0.68005-2.0951-0.36893-6.3198-1.3206-6.3198-1.3206 0.0451 0.25379 0.10012 0.70831 0.10012 0.70831 1.1503 0.3363 1.4235 0.91468 4.5363 6.5171 1.3683 2.5228 4.1147 7.3738 4.1147 7.3738 0.34942 2.1098 1.0111 6.2787 1.0111 6.2787 0.48663 3.1652 0.32862 3.4918-1.8121 3.5271 0.048 0.24717 0.10687 0.69365 0.10687 0.69365 2.4391 0.13007 7.2788 0.25359 7.2788 0.25359-0.0266-0.20751-0.11755-0.66763-0.11755-0.66763-2.1263-0.12143-2.5008-0.5314-2.9863-3.2744-0.37564-2.2884-1.1637-6.9111-1.1637-6.9111 0.71478-2.5977 2.0212-7.646 2.0212-7.646 0.83923-2.9295 1.2746-3.616 2.4052-3.6657 4.6e-4 2e-3 -0.12433-0.65365-0.12387-0.65126z"/>
 </g>
</svg>
